<svg xmlns="http://www.w3.org/2000/svg" xmlns:xlink="http://www.w3.org/1999/xlink" version="1.1" style="enable-background:new 0 0 52 52;" xml:space="preserve" width="50" height="50" ><rect id="backgroundrect" width="100%" height="100%" x="0" y="0" fill="none" stroke="none"/><style type="text/css">
	.st0{fill:none;stroke: rgba(255, 255, 255 0.9);stroke-width:2;stroke-linecap:round;stroke-linejoin:round;stroke-miterlimit:10;}
</style><g class="currentLayer" style=""><title>Layer 1</title><g id="svg_1"><g id="svg_2"><path  fill="rgba(255,255,255,0.9)" d="M45.9997559,49.9997559h-40c-2.2055664,0-4-1.7939453-4-4V6.0002441c0-2.2055664,1.7944336-4,4-4h40    c2.2055664,0,4,1.7944336,4,4v39.9995117C49.9997559,48.2058105,48.2053223,49.9997559,45.9997559,49.9997559z     M5.9997559,4.0002441c-1.1030273,0-2,0.8969727-2,2v39.9995117c0,1.1025391,0.8969727,2,2,2h40c1.1030273,0,2-0.8974609,2-2    V6.0002441c0-1.1030273-0.8969727-2-2-2H5.9997559z" id="svg_3"/></g><g id="svg_4"><path fill="rgba(255,255,255,0.9)" d="M30.2038574,10.598877h-8.4082031V2.0002441h8.4082031V10.598877z M23.7956543,8.598877h4.4082031V4.0002441h-4.4082031    V8.598877z" id="svg_5"/></g><g id="svg_6"><path fill="rgba(255,255,255,0.9)" d="M30.2038574,17.1975098h-8.4082031V8.598877h8.4082031V17.1975098z M23.7956543,15.1975098h4.4082031V10.598877    h-4.4082031V15.1975098z" id="svg_7"/></g><g id="svg_8"><path fill="rgba(255,255,255,0.9)" d="M30.2038574,43.401123h-8.4082031v-8.5976563h8.4082031V43.401123z M23.7956543,41.401123h4.4082031v-4.5976563    h-4.4082031V41.401123z" id="svg_9"/></g><g id="svg_10"><path fill="rgba(255,255,255,0.9)" d="M30.2038574,49.9997559h-8.4082031V41.401123h8.4082031V49.9997559z M23.7956543,47.9997559h4.4082031V43.401123    h-4.4082031V47.9997559z" id="svg_11"/></g><g id="svg_12"><path fill="rgba(255,255,255,0.9)" d="M50.0002441,30.2038574h-8.5986328v-8.4077148h8.5986328V30.2038574z M43.4016113,28.2038574h4.5986328v-4.4077148    h-4.5986328V28.2038574z" id="svg_13"/></g><g id="svg_14"><path fill="rgba(255,255,255,0.9)" d="M43.4016113,30.2038574h-8.5986328v-8.4077148h8.5986328V30.2038574z M36.8029785,28.2038574h4.5986328v-4.4077148    h-4.5986328V28.2038574z" id="svg_15"/></g><g id="svg_16"><path fill="rgba(255,255,255,0.9)" d="M17.1975098,30.204834H8.598877v-8.4082031l8.5986328-0.0004883V30.204834z M10.598877,28.204834h4.5986328v-4.4086914    l-4.5986328,0.0004883V28.204834z" id="svg_17"/></g><g id="svg_18"><path fill="rgba(255,255,255,0.9)" d="M10.598877,30.204834H2.0002441v-8.4082031h8.5986328V30.204834z M4.0002441,28.204834H8.598877v-4.4082031H4.0002441    V28.204834z" id="svg_19"/></g><g id="svg_20"><path  fill="rgba(255,255,255,0.9)" d="M39.1018066,19.1633301c-3.4550781,0-6.265625-2.8105469-6.265625-6.265625s2.8105469-6.265625,6.265625-6.265625    s6.265625,2.8105469,6.265625,6.265625S42.5568848,19.1633301,39.1018066,19.1633301z M39.1018066,8.6320801    c-2.3520508,0-4.265625,1.9135742-4.265625,4.265625s1.9135742,4.265625,4.265625,4.265625s4.265625-1.9135742,4.265625-4.265625    S41.4538574,8.6320801,39.1018066,8.6320801z" id="svg_21"/></g><g id="svg_22"><path fill="rgba(255,255,255,0.9)" d="M12.8977051,19.1633301c-3.4545898,0-6.2651367-2.8105469-6.2651367-6.265625s2.8105469-6.265625,6.2651367-6.265625    c3.4550781,0,6.265625,2.8105469,6.265625,6.265625S16.3527832,19.1633301,12.8977051,19.1633301z M12.8977051,8.6320801    c-2.3515625,0-4.2651367,1.9135742-4.2651367,4.265625s1.9135742,4.265625,4.2651367,4.265625    c2.3520508,0,4.265625-1.9135742,4.265625-4.265625S15.2497559,8.6320801,12.8977051,8.6320801z" id="svg_23"/></g><g id="svg_24"><path fill="rgba(255,255,255,0.9)" d="M39.1018066,45.3679199c-3.4550781,0-6.265625-2.8105469-6.265625-6.265625s2.8105469-6.265625,6.265625-6.265625    s6.265625,2.8105469,6.265625,6.265625S42.5568848,45.3679199,39.1018066,45.3679199z M39.1018066,34.8366699    c-2.3520508,0-4.265625,1.9130859-4.265625,4.265625s1.9135742,4.265625,4.265625,4.265625s4.265625-1.9130859,4.265625-4.265625    S41.4538574,34.8366699,39.1018066,34.8366699z" id="svg_25"/></g><g id="svg_26"><path fill="rgba(255,255,255,0.9)" d="M12.8977051,45.3669434c-3.4545898,0-6.2651367-2.8105469-6.2651367-6.265625    c0-3.4541016,2.8105469-6.2646484,6.2651367-6.2646484c3.4550781,0,6.265625,2.8105469,6.265625,6.2646484    C19.1633301,42.5563965,16.3527832,45.3669434,12.8977051,45.3669434z M12.8977051,34.8366699    c-2.3515625,0-4.2651367,1.9130859-4.2651367,4.2646484c0,2.3525391,1.9135742,4.265625,4.2651367,4.265625    c2.3520508,0,4.265625-1.9130859,4.265625-4.265625C17.1633301,36.7497559,15.2497559,34.8366699,12.8977051,34.8366699z" id="svg_27"/></g><g id="svg_28"><path fill="rgba(255,255,255,0.9)" d="M29.1784668,31.1784668h-6.3564453c-1.1030273,0-2-0.8974609-2-2v-6.3564453c0-1.1030273,0.8969727-2,2-2h6.3564453    c1.1030273,0,2,0.8969727,2,2v6.3564453C31.1784668,30.2810059,30.2814941,31.1784668,29.1784668,31.1784668z     M22.8220215,22.8220215v6.3564453h6.3579102l-0.0014648-6.3564453H22.8220215z" id="svg_29"/></g><g id="svg_30"><path fill="rgba(255,255,255,0.9)" d="M45.9997559,49.9997559h-40c-2.2055664,0-4-1.7939453-4-4V6.0002441c0-2.2055664,1.7944336-4,4-4h40    c2.2055664,0,4,1.7944336,4,4v39.9995117C49.9997559,48.2058105,48.2053223,49.9997559,45.9997559,49.9997559z     M5.9997559,4.0002441c-1.1030273,0-2,0.8969727-2,2v39.9995117c0,1.1025391,0.8969727,2,2,2h40c1.1030273,0,2-0.8974609,2-2    V6.0002441c0-1.1030273-0.8969727-2-2-2H5.9997559z" id="svg_31"/></g><g id="svg_32"><path fill="rgba(255,255,255,0.9)" d="M29.1784668,31.1784668h-6.3564453c-1.1030273,0-2-0.8974609-2-2v-6.3564453c0-1.1030273,0.8969727-2,2-2h6.3564453    c1.1030273,0,2,0.8969727,2,2v6.3564453C31.1784668,30.2810059,30.2814941,31.1784668,29.1784668,31.1784668z     M22.8220215,22.8220215v6.3564453h6.3579102l-0.0014648-6.3564453H22.8220215z" id="svg_33"/></g><g id="svg_34"><path fill="rgba(255,255,255,0.9)" d="M30.2038574,36.8034668h-8.4077148V29.173584h8.4077148V36.8034668z M23.7961426,34.8034668h4.4077148v-3.625h-4.4077148    V34.8034668z" id="svg_35"/></g><g id="svg_36"><path fill="rgba(255,255,255,0.9)" d="M15.1975098,30.204834v-8.4086914h7.6293945v8.4077148L15.1975098,30.204834z M17.1975098,23.7961426v4.4086914    l3.6245117-0.0009766v-4.4077148H17.1975098z" id="svg_37"/></g><g id="svg_38"><path fill="rgba(255,255,255,0.9)" d="M30.2038574,22.8269043h-8.4077148v-7.6293945h8.4077148V22.8269043z M23.7961426,20.8220215h4.4077148v-3.6245117    h-4.4077148V20.8220215z" id="svg_39"/></g><g id="svg_40"><path fill="rgba(255,255,255,0.9)" d="M29.1218262,30.204834l0.0566406-1.1328125l-0.0039063-6.2231445l-0.0556641-1.0527344h7.684082v8.4077148    L29.1218262,30.204834z M31.1784668,23.7961426v4.4086914l3.6245117-0.0009766v-4.4077148H31.1784668z" id="svg_41"/></g><g id="svg_42"><path fill="rgba(255,255,255,0.9)" d="M39.6018066,13.8977051h-1c-0.5522461,0-1-0.4477539-1-1s0.4477539-1,1-1h1c0.5522461,0,1,0.4477539,1,1    S40.1540527,13.8977051,39.6018066,13.8977051z" id="svg_43"/></g><g id="svg_44"><path fill="rgba(255,255,255,0.9)" d="M13.3977051,13.8977051h-1c-0.5522461,0-1-0.4477539-1-1s0.4477539-1,1-1h1c0.5522461,0,1,0.4477539,1,1    S13.9499512,13.8977051,13.3977051,13.8977051z" id="svg_45"/></g><g id="svg_46"><path fill="rgba(255,255,255,0.9)" d="M39.6018066,40.1022949h-1c-0.5522461,0-1-0.4472656-1-1s0.4477539-1,1-1h1c0.5522461,0,1,0.4472656,1,1    S40.1540527,40.1022949,39.6018066,40.1022949z" id="svg_47"/></g><g id="svg_48"><path fill="rgba(255,255,255,0.9)" d="M13.3977051,40.1022949h-1c-0.5522461,0-1-0.4472656-1-1s0.4477539-1,1-1h1c0.5522461,0,1,0.4472656,1,1    S13.9499512,40.1022949,13.3977051,40.1022949z" id="svg_49"/></g></g></g></svg>