<svg xmlns="http://www.w3.org/2000/svg" xmlns:xlink="http://www.w3.org/1999/xlink" version="1.1" enable-background="new 0 0 100 100" xml:space="preserve" width="100" height="100"><rect id="backgroundrect" width="100%" height="100%" x="0" y="0" fill="none" stroke="none"/><g class="currentLayer" style=""><title>Layer 1</title><g id="svg_1" class="selected"><path fill="rgba(255,255,255,0.9)"  d="M74.758,55.08737270355225 C76.043,54.74937270355225 77,53.58637270355224 77,52.19637270355225 c0,-1.3010000000000002 -0.8390000000000001,-2.4 -2,-2.815 V30.616372703552248 h-0.04400000000000001 c-0.35400000000000004,-6.284 -3.041,-11.955 -7.206,-16.159 c-0.026000000000000006,-0.028000000000000004 -0.04500000000000001,-0.06400000000000002 -0.07300000000000001,-0.09300000000000003 c-0.029000000000000005,-0.030000000000000006 -0.06800000000000002,-0.05100000000000001 -0.1,-0.08000000000000002 C63.278,10.029372703552246 57.45,7.322372703552246 50.999,7.0673727035522464 V3.042372703552246 h-2 v4.025 c-6.448,0.256 -12.276,2.9610000000000003 -16.574,7.215 c-0.03200000000000001,0.030000000000000006 -0.07200000000000001,0.05100000000000001 -0.10400000000000001,0.08200000000000002 c-0.028000000000000004,0.028000000000000004 -0.04600000000000001,0.06400000000000002 -0.07300000000000001,0.09400000000000003 c-4.185,4.224 -6.877,9.927 -7.212,16.246 H25 v18.493 h0.991 C24.343,49.20237270355224 23,50.54737270355225 23,52.19637270355225 c0,1.471 1.069,2.693 2.468,2.946 C23.514,55.40437270355225 22,57.061372703552244 22,59.08937270355224 c0,2.209 1.791,21 4,21 c2.209,0 4,-18.791 4,-21 c0,-2.027 -1.513,-3.685 -3.468,-3.946 C27.931,54.890372703552245 29,53.667372703552246 29,52.19637270355225 c0,-1.649 -1.342,-2.9939999999999998 -2.99,-2.999 H27 v-7.362 c1.25,2.925 3.042,5.563 5.249,7.791 c0.027000000000000007,0.029000000000000005 0.04500000000000001,0.06500000000000002 0.07300000000000001,0.09400000000000003 c0.031000000000000007,0.031000000000000007 0.07100000000000001,0.05200000000000001 0.10400000000000001,0.08200000000000002 c0.806,0.799 1.6660000000000001,1.5430000000000001 2.574,2.227 v17.022 c-1.1600000000000001,0.41500000000000004 -2,1.516 -2,2.815 s0.8380000000000001,2.399 1.998,2.814 C33.277,75.12737270355224 32,76.67737270355225 32,78.53937270355225 c0,2.209 1.791,21 4,21 c2.209,0 4,-18.791 4,-21 c0,-1.8610000000000002 -1.2770000000000001,-3.411 -2.998,-3.858 C38.162,74.26637270355225 39,73.16637270355224 39,71.86637270355224 c0,-1.3010000000000002 -0.8390000000000001,-2.4 -2,-2.815 V53.38837270355225 c3.523,2.153 7.619,3.455 12,3.629 V67.12237270355224 c-3.383,0.48900000000000005 -6,3.4050000000000002 -6,6.92 s2.616,6.431 6,6.92 v3.223 c-1.719,0.44800000000000006 -3,2.002 -3,3.857 c0,2.203 1.7970000000000002,4 4,4 c2.204,0 4.001,-1.7970000000000002 4.001,-4 c0,-1.856 -1.2810000000000001,-3.41 -3.002,-3.857 V80.96237270355225 c3.3850000000000002,-0.48800000000000004 6.002,-3.404 6.002,-6.92 s-2.617,-6.432 -6.002,-6.92 V57.01737270355225 C55.381,56.84337270355225 59.477,55.542372703552246 63,53.38837270355225 v15.663 c-1.161,0.41500000000000004 -1.999,1.516 -1.999,2.815 c0,1.375 0.9380000000000001,2.527 2.203,2.879 C61.376,75.11437270355225 60,76.72837270355225 60,78.66537270355225 c0,2.209 1.79,20.999 4,20.999 s4,-18.79 4,-20.999 c0,-1.9380000000000002 -1.3760000000000001,-3.551 -3.204,-3.92 C66.062,74.39437270355225 67,73.24137270355224 67,71.86637270355224 c0,-1.3010000000000002 -0.8390000000000001,-2.4 -2,-2.815 V52.02837270355224 c0.909,-0.6840000000000002 1.77,-1.4300000000000002 2.577,-2.229 c0.031000000000000007,-0.029000000000000005 0.07,-0.05000000000000001 0.1,-0.08000000000000002 c0.028000000000000004,-0.028000000000000004 0.04700000000000001,-0.06400000000000002 0.07300000000000001,-0.09300000000000003 c2.208,-2.228 4,-4.867 5.25,-7.792 v7.546 c-1.1600000000000001,0.41500000000000004 -1.999,1.516 -1.999,2.815 c0,1.389 0.9570000000000001,2.552 2.242,2.891 C71.396,55.44137270355225 70,57.06237270355225 70,59.01137270355225 c0,2.209 1.79,21 4,21 s4,-18.791 4,-21 C78,57.06237270355225 76.604,55.44137270355225 74.758,55.08737270355225 zM66.181,48.369372703552244 c-0.561,0.514 -1.3840000000000001,0.781 -2.463,0.781 c-1.637,0 -3.6580000000000004,-0.5790000000000001 -5.885,-1.614 c0.5820000000000001,-1.8800000000000001 1.057,-3.982 1.405,-6.256 c2.2720000000000002,-0.3490000000000001 4.372,-0.8230000000000001 6.25,-1.404 c0.019000000000000003,0.04100000000000001 0.04200000000000001,0.08300000000000002 0.06200000000000001,0.12400000000000001 c1.774,3.873 2.045,6.861 0.7640000000000001,8.237 C66.27,48.28137270355224 66.226,48.32537270355225 66.181,48.369372703552244 zM33.686,48.237372703552246 c-1.268,-1.366 -0.9680000000000001,-4.434 0.8420000000000001,-8.355 c1.874,0.5780000000000001 3.968,1.051 6.233,1.3980000000000001 c0.3490000000000001,2.273 0.8240000000000001,4.376 1.405,6.256 c-2.226,1.035 -4.248,1.614 -5.885,1.614 c-1.078,0 -1.9,-0.267 -2.461,-0.779 C33.776,48.32737270355224 33.731,48.28237270355225 33.686,48.237372703552246 zM33.821,15.713372703552245 c0.561,-0.513 1.383,-0.779 2.461,-0.779 c1.637,0 3.6590000000000003,0.5790000000000001 5.885,1.614 c-0.5820000000000001,1.8800000000000001 -1.057,3.982 -1.405,6.256 c-2.265,0.3480000000000001 -4.359,0.8200000000000001 -6.233,1.3980000000000001 c-1.81,-3.922 -2.11,-6.989 -0.8420000000000001,-8.355 C33.731,15.802372703552246 33.776,15.757372703552246 33.821,15.713372703552245 zM66.313,15.847372703552246 c1.2810000000000001,1.3760000000000001 1.011,4.364 -0.7640000000000001,8.237 c-0.020000000000000004,0.04100000000000001 -0.04300000000000001,0.08300000000000002 -0.06200000000000001,0.12400000000000001 c-1.8780000000000001,-0.5810000000000001 -3.9779999999999998,-1.056 -6.25,-1.404 c-0.3490000000000001,-2.273 -0.8230000000000001,-4.376 -1.405,-6.256 c2.227,-1.035 4.248,-1.614 5.885,-1.614 c1.079,0 1.9020000000000001,0.268 2.463,0.781 C66.226,15.759372703552247 66.27,15.803372703552245 66.313,15.847372703552246 zM66.505,37.43137270355225 c-0.936,-1.7560000000000002 -2.094,-3.568 -3.434,-5.389 c1.34,-1.82 2.498,-3.633 3.434,-5.389 c4.102,1.5150000000000001 6.494,3.505 6.494,5.389 S70.606,35.91637270355225 66.505,37.43137270355225 zM53.249,39.866372703552244 c-1.057,0.05400000000000001 -2.133,0.09200000000000003 -3.249,0.09200000000000003 c-1.116,0 -2.192,-0.038000000000000006 -3.249,-0.09200000000000003 c-0.79,-0.7130000000000001 -1.5750000000000002,-1.453 -2.349,-2.227 c-0.787,-0.787 -1.52,-1.573 -2.228,-2.356 c-0.05400000000000001,-1.055 -0.09100000000000003,-2.128 -0.09100000000000003,-3.241 s0.038000000000000006,-2.187 0.09100000000000003,-3.241 c0.7080000000000001,-0.783 1.44,-1.569 2.228,-2.356 c0.773,-0.773 1.5590000000000002,-1.514 2.349,-2.227 c1.057,-0.05400000000000001 2.133,-0.09200000000000003 3.249,-0.09200000000000003 c1.116,0 2.192,0.038000000000000006 3.249,0.09200000000000003 c0.79,0.7130000000000001 1.5750000000000002,1.453 2.349,2.227 c0.775,0.775 1.5110000000000001,1.5630000000000002 2.228,2.356 c0.05400000000000001,1.055 0.09200000000000003,2.128 0.09200000000000003,3.241 s-0.038000000000000006,2.187 -0.09200000000000003,3.241 c-0.7170000000000001,0.793 -1.452,1.581 -2.228,2.356 C54.824,38.41337270355225 54.039,39.15337270355224 53.249,39.866372703552244 zM59.909,31.227372703552245 c0.22000000000000003,0.271 0.43400000000000005,0.543 0.6460000000000001,0.8150000000000001 c-0.21200000000000002,0.272 -0.42600000000000005,0.544 -0.6460000000000001,0.8150000000000001 c0.003000000000000001,-0.271 0.008000000000000002,-0.542 0.008000000000000002,-0.8150000000000001 S59.912,31.498372703552246 59.909,31.227372703552245 zM59.792,28.000372703552245 c-0.06600000000000002,-1.068 -0.16000000000000003,-2.111 -0.276,-3.126 c1.847,0.30500000000000005 3.533,0.6950000000000002 5.052,1.146 c-0.777,1.423 -1.707,2.886 -2.7670000000000003,4.361 C61.166,29.583372703552246 60.489,28.790372703552247 59.792,28.000372703552245 zM57.579,25.618372703552247 c-0.19100000000000003,-0.19500000000000003 -0.37300000000000005,-0.3940000000000001 -0.5670000000000001,-0.5880000000000001 c-0.19200000000000003,-0.19300000000000003 -0.38800000000000007,-0.37700000000000006 -0.5830000000000001,-0.5650000000000001 c0.3480000000000001,0.036000000000000004 0.6960000000000002,0.07100000000000001 1.035,0.11400000000000002 C57.507,24.919372703552245 57.542,25.270372703552248 57.579,25.618372703552247 zM54.054,22.252372703552247 c-0.796,-0.7040000000000001 -1.5950000000000002,-1.373 -2.394,-2.009 c1.487,-1.07 2.954,-2.008 4.36,-2.779 c0.451,1.521 0.8420000000000001,3.212 1.1480000000000001,5.063 C56.157,22.411372703552246 55.118,22.318372703552246 54.054,22.252372703552247 zM50.812,22.134372703552245 c-0.27,-0.003000000000000001 -0.539,-0.008000000000000002 -0.812,-0.008000000000000002 s-0.542,0.005000000000000001 -0.8130000000000001,0.008000000000000002 c0.271,-0.22000000000000003 0.542,-0.43700000000000006 0.8130000000000001,-0.6470000000000001 C50.271,21.697372703552247 50.541,21.914372703552246 50.812,22.134372703552245 zM45.945,22.252372703552247 c-1.064,0.06600000000000002 -2.103,0.15900000000000003 -3.114,0.274 c0.30600000000000005,-1.851 0.6970000000000002,-3.541 1.1480000000000001,-5.063 c1.4060000000000001,0.771 2.872,1.709 4.36,2.779 C47.541,20.879372703552246 46.742,21.548372703552246 45.945,22.252372703552247 zM43.57,24.465372703552248 c-0.19400000000000003,0.18800000000000003 -0.38900000000000007,0.37200000000000005 -0.5820000000000001,0.5650000000000001 c-0.19500000000000003,0.19500000000000003 -0.37500000000000006,0.3940000000000001 -0.5670000000000001,0.5900000000000001 c0.037000000000000005,-0.35000000000000003 0.07200000000000001,-0.7000000000000001 0.11500000000000002,-1.041 C42.875,24.536372703552246 43.223,24.501372703552246 43.57,24.465372703552248 zM40.208,28.004372703552246 c-0.7010000000000001,0.795 -1.375,1.589 -2.004,2.382 c-1.087,-1.518 -2.002,-2.982 -2.7560000000000002,-4.371 c1.514,-0.44800000000000006 3.196,-0.8370000000000001 5.036,-1.141 C40.368,25.891372703552246 40.274,26.935372703552247 40.208,28.004372703552246 zM40.091,31.234372703552246 c-0.003000000000000001,0.269 -0.008000000000000002,0.536 -0.008000000000000002,0.808 s0.004000000000000001,0.539 0.008000000000000002,0.808 c-0.21800000000000003,-0.271 -0.43800000000000006,-0.54 -0.6470000000000001,-0.808 C39.653,31.774372703552245 39.873,31.505372703552247 40.091,31.234372703552246 zM40.208,36.08037270355224 c0.06600000000000002,1.069 0.15900000000000003,2.113 0.276,3.13 c-1.84,-0.30400000000000005 -3.5220000000000002,-0.6920000000000002 -5.036,-1.141 c0.7540000000000001,-1.389 1.669,-2.854 2.7560000000000002,-4.371 C38.834,34.491372703552244 39.507,35.28537270355225 40.208,36.08037270355224 zM42.421,38.46437270355224 c0.19100000000000003,0.19600000000000004 0.37200000000000005,0.3950000000000001 0.5670000000000001,0.5900000000000001 c0.19300000000000003,0.19300000000000003 0.38800000000000007,0.37700000000000006 0.5820000000000001,0.5650000000000001 c-0.3470000000000001,-0.036000000000000004 -0.6950000000000002,-0.07100000000000001 -1.034,-0.11400000000000002 C42.494,39.164372703552246 42.458,38.81337270355225 42.421,38.46437270355224 zM45.945,41.832372703552245 c0.796,0.7040000000000001 1.596,1.373 2.394,2.009 c-1.488,1.07 -2.954,2.008 -4.36,2.779 c-0.451,-1.521 -0.8420000000000001,-3.212 -1.1480000000000001,-5.063 C43.843,41.673372703552246 44.881,41.76637270355224 45.945,41.832372703552245 zM49.188,41.95037270355225 c0.271,0.003000000000000001 0.54,0.008000000000000002 0.8130000000000001,0.008000000000000002 s0.542,-0.005000000000000001 0.812,-0.008000000000000002 c-0.271,0.22000000000000003 -0.541,0.43700000000000006 -0.812,0.6470000000000001 C49.729,42.387372703552245 49.458,42.170372703552246 49.188,41.95037270355225 zM54.054,41.832372703552245 c1.064,-0.06600000000000002 2.104,-0.15900000000000003 3.115,-0.274 c-0.30700000000000005,1.851 -0.6970000000000002,3.542 -1.1480000000000001,5.063 c-1.4060000000000001,-0.771 -2.873,-1.709 -4.36,-2.779 C52.459,43.20537270355224 53.258,42.536372703552246 54.054,41.832372703552245 zM56.429,39.619372703552244 c0.19500000000000003,-0.18800000000000003 0.39100000000000007,-0.37200000000000005 0.5830000000000001,-0.5650000000000001 c0.19400000000000003,-0.19400000000000003 0.37600000000000006,-0.39300000000000007 0.5670000000000001,-0.5880000000000001 c-0.037000000000000005,0.3490000000000001 -0.07200000000000001,0.6990000000000002 -0.11500000000000002,1.039 C57.125,39.548372703552246 56.776,39.58337270355224 56.429,39.619372703552244 zM59.792,36.08437270355225 c0.6970000000000002,-0.79 1.374,-1.5830000000000002 2.009,-2.3810000000000002 c1.06,1.476 1.9889999999999999,2.938 2.7670000000000003,4.361 c-1.5190000000000001,0.45 -3.205,0.8410000000000001 -5.052,1.146 C59.632,38.195372703552245 59.726,37.152372703552246 59.792,36.08437270355225 zM67.391,24.860372703552247 c0.974,-2.136 1.5110000000000001,-4.048 1.6510000000000002,-5.703 c1.725,2.539 2.949,5.441 3.545,8.564 C71.298,26.641372703552246 69.53,25.675372703552245 67.391,24.860372703552247 zM57.182,14.650372703552247 c-0.8140000000000001,-2.1390000000000002 -1.78,-3.907 -2.8600000000000003,-5.195 c3.111,0.5940000000000001 6.004,1.812 8.536,3.525 C61.179,13.131372703552247 59.253,13.709372703552246 57.182,14.650372703552247 zM55.388,15.532372703552246 c-1.738,0.927 -3.552,2.08 -5.388,3.434 c-1.836,-1.354 -3.649,-2.5060000000000002 -5.388,-3.434 C46.127,11.435372703552247 48.117,9.042372703552246 50,9.042372703552246 C51.883,9.042372703552246 53.873,11.434372703552246 55.388,15.532372703552246 zM42.818,14.650372703552247 c-2.071,-0.9410000000000001 -3.997,-1.52 -5.676,-1.6700000000000002 c2.533,-1.714 5.425,-2.932 8.536,-3.525 C44.598,10.743372703552247 43.632,12.512372703552247 42.818,14.650372703552247 zM32.643,24.848372703552247 c-2.154,0.8170000000000001 -3.934,1.787 -5.229,2.873 c0.6000000000000001,-3.143 1.838,-6.061 3.579,-8.611 C31.135,20.798372703552246 31.694,22.739372703552245 32.643,24.848372703552247 zM33.523,26.644372703552246 c0.917,1.735 2.063,3.55 3.419,5.398 c-1.357,1.8490000000000002 -2.502,3.6630000000000003 -3.419,5.398 C29.406,35.92537270355225 27,33.93037270355225 27,32.042372703552246 S29.406,28.159372703552247 33.523,26.644372703552246 zM32.643,39.23637270355225 c-0.9480000000000001,2.108 -1.5070000000000001,4.05 -1.6510000000000002,5.738 c-1.741,-2.551 -2.979,-5.469 -3.579,-8.611 C28.708,37.44937270355224 30.488,38.41937270355225 32.643,39.23637270355225 zM42.818,49.43437270355225 c0.8140000000000001,2.1390000000000002 1.78,3.907 2.8600000000000003,5.195 c-3.111,-0.5940000000000001 -6.003,-1.812 -8.536,-3.525 C38.821,50.95337270355225 40.747,50.375372703552245 42.818,49.43437270355225 zM44.612,48.552372703552244 c1.738,-0.928 3.551,-2.08 5.388,-3.434 c1.836,1.354 3.649,2.507 5.388,3.434 C53.873,52.65037270355224 51.883,55.042372703552246 50,55.042372703552246 C48.117,55.042372703552246 46.127,52.649372703552245 44.612,48.552372703552244 zM57.182,49.43437270355225 c2.071,0.9410000000000001 3.997,1.52 5.676,1.6700000000000002 c-2.532,1.714 -5.425,2.932 -8.536,3.525 C55.401,53.341372703552246 56.367,51.57237270355225 57.182,49.43437270355225 zM67.391,39.22437270355225 c2.14,-0.8140000000000001 3.907,-1.78 5.196,-2.861 c-0.5960000000000001,3.123 -1.82,6.025 -3.545,8.564 C68.901,43.271372703552245 68.364,41.359372703552246 67.391,39.22437270355225 z" id="svg_2"/><path fill="rgba(255,255,255,0.9)"  d="M47,95.04237270355225 c0,1.657 1.344,7 3,7 c1.657,0 3,-5.343 3,-7 c0,-1.6560000000000001 -1.343,-3 -3,-3 C48.343,92.04237270355225 47,93.38637270355224 47,95.04237270355225 z" id="svg_3"/></g></g></svg>