<svg xmlns="http://www.w3.org/2000/svg" data-name="Layer 1" width="100" height="100"><rect id="backgroundrect" width="100%" height="100%" x="0" y="0" fill="none" stroke="none"/><title>16</title><g class="currentLayer" style=""><title>Layer 1</title><g data-name="Group" id="svg_1"><path fill="rgba(255,255,255,0.9)" data-name="Compound Path" d="M88.6,29.7a10,10,0,0,0-10-10H73.5V14.3a2,2,0,1,0-4,0v5.4h-39V14.3a2,2,0,1,0-4,0v5.4H21.4a10,10,0,0,0-10,10v48a10,10,0,0,0,10,10H78.6a10,10,0,0,0,10-10Zm-67.2-6h5.1v3.8a2,2,0,0,0,4,0V23.7h39v3.8a2,2,0,0,0,4,0V23.7h5.1a6,6,0,0,1,6,6v7.4H15.4V29.7A6,6,0,0,1,21.4,23.7Zm57.2,60H21.4a6,6,0,0,1-6-6V41.1H84.6V77.7A6,6,0,0,1,78.6,83.7Z" id="svg_2"/><path fill="rgba(255,255,255,0.9)" data-name="Path" d="M63.5,52.2,45.7,67.9l-8-8.1a2,2,0,0,0-2.8,2.8l9.2,9.5a2,2,0,0,0,1.5.6,2.4,2.4,0,0,0,1.3-.5l19.3-17a2.2,2.2,0,0,0,.2-2.9A2.1,2.1,0,0,0,63.5,52.2Z" id="svg_3"/></g></g></svg>