<svg xmlns="http://www.w3.org/2000/svg" xmlns:xlink="http://www.w3.org/1999/xlink" version="1.1" enable-background="new 0 0 100 100" xml:space="preserve" width="60" height="60" viewBox="0 0 100 100"><rect id="backgroundrect" width="100%" height="100%" x="0" y="0" fill="none" stroke="none"/><g class="currentLayer" style=""><title>Layer 1</title><g id="svg_8" class="selected"><g id="svg_9"><path  fill="rgba(255,255,255,0.9)" d="M71.916,25.222c-5.819,0-10.557-4.739-10.557-10.565c0-5.821,4.737-10.557,10.557-10.557    c5.826,0,10.565,4.736,10.565,10.557C82.481,20.482,77.742,25.222,71.916,25.222z M71.916,8.46c-3.414,0-6.195,2.779-6.195,6.196    c0,3.42,2.781,6.204,6.195,6.204c3.422,0,6.206-2.784,6.206-6.204C78.122,11.24,75.338,8.46,71.916,8.46z" id="svg_10"/></g><g id="svg_11"><path fill="rgba(255,255,255,0.9)" d="M35.025,77.047l-0.179-0.004c-0.589-0.037-14.458-0.881-18.642-1.219c-2.396-0.191-8.758-0.701-8.758-6.082    c0-1.285,0.551-5.506,7.6-5.922c3.706-0.215,12.988-0.854,16.113-1.068l6.996-10.117l3.589,2.48l-8.19,11.842l-1.046,0.074    c-0.128,0.008-12.718,0.883-17.205,1.145c-0.582,0.033-3.494,0.27-3.494,1.566c0,0.336,0,1.355,4.743,1.736    c3.984,0.318,17.354,1.139,18.484,1.207c1.076-0.021,2.096-0.633,2.782-1.645l7.427-10.605l3.572,2.5l-7.407,10.58    C39.922,75.717,37.525,77.047,35.025,77.047z" id="svg_12"/></g><g id="svg_13"><path fill="rgba(255,255,255,0.9)" d="M53.617,97.781L53.617,97.781c-0.648,0-1.287-0.129-1.897-0.387c-1.95-0.828-4.642-3.582-0.824-12.742l6.012-14.844    l-14.726-9.76c-5.965-5.08-4.332-10.031-1.679-14.626l0.079-0.127l9.468-14.069l-4.433-0.966l-11.926,6.332    c-1.045,0.623-2.853,1.332-4.605,1.332c-2.08,0-3.081-1.026-3.49-1.637c-1.725-2.544-0.731-5.461,2.959-8.663l0.098-0.08    L40.85,18.13c1.431-0.963,3.221-1.313,4.928-0.959l14.719,3.199c0.982,0.215,1.884,0.658,2.682,1.318l7.25,4.867    c2.605,1.759,1.488,6.322,0.44,7.883l-11.938,19.12l11.135,7.631c2.893,1.986,3.954,5.75,2.528,8.945l-0.061,0.121L62.36,89.695    C59.35,95.223,56.575,97.781,53.617,97.781z M53.488,93.402c0.057,0.018,0.098,0.02,0.129,0.02c0.18,0,1.834-0.162,4.897-5.781    l10.12-19.34c0.533-1.264,0.102-2.734-1.037-3.518l-14.577-9.992l14.188-22.725c0.299-0.446,0.519-1.557,0.465-2.109l-7.23-4.873    c-0.272-0.233-0.568-0.387-0.877-0.455l-14.693-3.194c-0.459-0.094-1.083-0.009-1.535,0.278l-11.973,9.243    c-1.54,1.345-2.068,2.179-2.17,2.603c0.671-0.032,1.652-0.34,2.289-0.728l0.109-0.064l13.392-7.109l12.27,2.674L44.241,47.667    c-2.37,4.122-2.626,6.13,0.671,8.978l17.377,11.494l-7.357,18.172C52.799,91.426,53.369,93.141,53.488,93.402z" id="svg_14"/></g><g id="svg_15"><path fill="rgba(255,255,255,0.9)" d="M72.143,52.674l-0.152-0.02c-2.436-0.293-4.355-2.283-5.178-4.126l-3.266-7.835l4.025-1.678l3.244,7.785    c0.302,0.678,1.029,1.367,1.59,1.506c1.453-0.031,10.313-0.23,12.843-0.369c2.985-0.162,3.993-0.643,4.278-0.832    c-0.035-0.398-0.402-0.656-3.269-0.865l-11.711-0.992l-6.681-15.143l3.99-1.76l5.637,12.775l9.105,0.773    c2.598,0.189,7.477,0.547,7.287,5.562c-0.158,4.39-6.361,4.724-8.4,4.835c-2.814,0.156-12.768,0.369-13.188,0.379L72.143,52.674z" id="svg_16"/></g></g></g></svg>