<svg xmlns:dc="http://purl.org/dc/elements/1.1/" xmlns:cc="http://creativecommons.org/ns#" xmlns:rdf="http://www.w3.org/1999/02/22-rdf-syntax-ns#" xmlns:svg="http://www.w3.org/2000/svg" xmlns="http://www.w3.org/2000/svg" xmlns:sodipodi="http://sodipodi.sourceforge.net/DTD/sodipodi-0.dtd" xmlns:inkscape="http://www.inkscape.org/namespaces/inkscape" version="1.1" width="100" height="100" style=""><rect id="backgroundrect" width="100%" height="100%" x="0" y="0" fill="none" stroke="none"/><g class="currentLayer" style=""><title>Layer 1</title><g id="svg_1"><path  style="text-indent:0;text-transform:none;direction:ltr;block-progression:tb;baseline-shift:baseline;color:#000000;enable-background:accumulate;" d="M50.03125,6.999967382812542 C26.31529,6.999967382812542 7,26.275367382812533 7,49.999917382812555 c0,23.7247 19.31529,43.0001 43.03125,43.0001 C73.74721,93.00001738281253 93,73.72461738281254 93,49.999917382812555 C93,26.275367382812533 73.74721,6.999967382812542 50.03125,6.999967382812542 zm-6.90625,4.625 c-2.22989,1.4074 -4.35357,2.9305 -6.21875,4.6875 c-4.01721,3.7843 -6.875,8.7199 -6.875,14.9375 c-0.000009999999999999999,6.215 2.6293800000000003,10.6936 6.34375,13.7812 c7.51726,6.16185 17.66136,7.25695 24.75,13.00005 c3.03317,2.5218 4.90626,5.5588 4.90625,10.7188 c0,5.2694 -1.31063,8.9065 -4.4375,12.0625 c-3.00571,3.0337 -7.81081,7.8751 -15.28125,8 c-19.80807,-1.8649 -35.28125,-18.5024 -35.28125,-38.8126 c0,-19.20335 13.8447,-35.11645 32.09375,-38.37495 zm6.875,12.375 c3.31371,0 6,2.6863 6,6 c0,3.3137 -2.68629,6 -6,6 c-3.31371,0 -6,-2.6863 -6,-6 c0,-3.3137 2.68629,-6 6,-6 zm0.031200000000000006,40.00005 c-3.31251,0 -6,2.6863 -6,6 c0,3.3137 2.6874900000000004,6 6,6 c3.31251,0 6,-2.6863 6,-6 c0,-3.3137 -2.6874900000000004,-6 -6,-6 z" fill="#ffffff" fill-opacity="0.9" stroke="none" marker="none" visibility="visible" display="inline" overflow="visible" id="svg_2"/></g></g></svg>