<svg xmlns="http://www.w3.org/2000/svg" xmlns:xlink="http://www.w3.org/1999/xlink" version="1.1" style="" xml:space="preserve" width="50" height="60" viewBox="5 10 45 45"><rect id="backgroundrect" width="100%" height="100%" x="0" y="0" fill="none" stroke="none"/><g class="currentLayer" style=""><title>Layer 1</title><g id="svg_1" class="selected"><g id="svg_2"><path fill="rgba(255,255,255,0.9)" d="M45.84375,56.474575996398926 H13.84375 c-3.9,0 -7,-3.1 -7,-7 s3.1,-7 7,-7 h32 c0.6000000000000002,0 1,0.4 1,1 v12 C46.84375,56.07457599639893 46.44375,56.474575996398926 45.84375,56.474575996398926 zM13.84375,44.474575996398926 c-2.8,0 -5,2.2 -5,5 s2.2,5 5,5 h31 V44.474575996398926 H13.84375 z" id="svg_3"/></g><g id="svg_4"><path fill="rgba(255,255,255,0.9)" d="M7.84375,50.474575996398926 c-0.6000000000000002,0 -1,-0.4 -1,-1 V15.474575996398926 c0,-3.9 3.1,-7 7,-7 h32 c0.6000000000000002,0 1,0.4 1,1 v34 c0,0.6000000000000002 -0.4,1 -1,1 s-1,-0.4 -1,-1 V10.474575996398926 H13.84375 c-2.8,0 -5,2.2 -5,5 v34 C8.84375,50.07457599639893 8.44375,50.474575996398926 7.84375,50.474575996398926 z" id="svg_5"/></g><g id="svg_6"><path fill="rgba(255,255,255,0.9)" d="M13.84375,44.474575996398926 c-0.6000000000000002,0 -1,-0.4 -1,-1 V9.474575996398926 c0,-0.6000000000000002 0.4,-1 1,-1 s1,0.4 1,1 v34 C14.84375,44.07457599639893 14.44375,44.474575996398926 13.84375,44.474575996398926 z" id="svg_7"/></g><g id="svg_8"><path fill="rgba(255,255,255,0.9)" d="M29.84375,33.57457599639893 c-0.1,0 -0.3000000000000001,0 -0.4,-0.1 C29.14375,33.374575996398924 22.84375,30.474575996398926 22.84375,25.774575996398926 c0,-2.4 2,-4.4 4.4,-4.4 c1,0 1.9,0.3000000000000001 2.6,0.9 c0.7000000000000002,-0.6000000000000002 1.7000000000000002,-0.9 2.6,-0.9 c2.4,0 4.4,2 4.4,4.4 c0,4.7 -6.3,7.5 -6.6,7.7 C30.14375,33.474575996398926 29.94375,33.57457599639893 29.84375,33.57457599639893 zM27.24375,23.374575996398924 c-1.3,0 -2.4,1.1 -2.4,2.4 c0,2.6 3.3,4.8 5,5.6 c1.7000000000000002,-0.8 5,-3 5,-5.6 c0,-1.3 -1.1,-2.4 -2.4,-2.4 c-0.7000000000000002,0 -1.4,0.3000000000000001 -1.8,0.9 c-0.2,0.2 -0.5,0.4 -0.8,0.4 h0 c-0.3000000000000001,0 -0.6000000000000002,-0.1 -0.8,-0.4 C28.64375,23.774575996398926 27.94375,23.374575996398924 27.24375,23.374575996398924 z" id="svg_9"/></g></g></g></svg>