<svg xmlns="http://www.w3.org/2000/svg" xmlns:xlink="http://www.w3.org/1999/xlink" version="1.1" enable-background="new 0 0 50 50" xml:space="preserve" width="100" height="100" style="" viewBox="0 0 110 110"><rect id="backgroundrect" width="100%" height="100%" x="0" y="0" fill="none" stroke="none"/><g class="currentLayer" style=""><title>Layer 1</title><g id="svg_1"><g id="svg_2"><path fill="rgba(255,255,255,0.9)"  d="M19.342,34.361c5.627,0,10.205-4.578,10.205-10.203c0-5.627-4.578-10.205-10.205-10.205    c-5.625,0-10.203,4.578-10.203,10.205C9.139,29.783,13.717,34.361,19.342,34.361z M19.342,18.119c3.331,0,6.039,2.708,6.039,6.039    c0,3.329-2.708,6.037-6.039,6.037c-3.328,0-6.036-2.708-6.036-6.037C13.306,20.827,16.014,18.119,19.342,18.119z M83.12,33.333    c5.628,0,10.205-4.578,10.205-10.203c0-5.627-4.577-10.205-10.205-10.205c-5.625,0-10.203,4.578-10.203,10.205    C72.917,28.756,77.495,33.333,83.12,33.333z M83.12,17.092c3.33,0,6.038,2.708,6.038,6.039c0,3.329-2.708,6.036-6.038,6.036    c-3.328,0-6.036-2.708-6.036-6.036C77.084,19.8,79.792,17.092,83.12,17.092z M47.042,34.584c-1.225,0-2.393,0.382-3.381,1.105    l-6.177,4.508l-8.279-4.201c-0.669-0.338-1.935-0.493-2.864-0.539c-0.045-0.002-0.087-0.021-0.132-0.021h-12.5    c-0.313,0-0.606,0.074-0.873,0.197c-1.079,0.388-2.089,1.285-2.899,2.043l-8.128,7.63c-1.913,1.794-2.362,4.653-1.09,6.949    L7.29,64.164c0.867,1.574,2.416,2.63,4.162,2.894l-2.06,26.773c-0.238,3.149,2.126,5.906,5.27,6.152    c0.039,0.002,0.075,0.004,0.114,0.007c0.112,0.006,0.222,0.01,0.332,0.01c2.975,0,5.483-2.323,5.711-5.29l0.017-0.17l0.016,0.17    c0.228,2.967,2.736,5.29,5.711,5.29c0.11,0,0.22-0.004,0.332-0.01c0.039-0.003,0.075-0.005,0.114-0.007    c3.144-0.246,5.507-3.003,5.27-6.148L30.36,68.926c0.004-0.053,0.016-0.103,0.016-0.155V49.44l-4.167-2.116v19.363l0.057,0.926    l0.006,0.553l1.849,25.984c0.065,0.861-0.578,1.611-1.438,1.679c-0.041,0.002-0.082,0.004-0.122,0.004    c-0.808,0-1.494-0.622-1.557-1.442l-2.087-21.474c0-1.151-0.932-2.084-2.083-2.084c-1.152,0-2.083,0.933-2.083,2.084    l-2.087,21.474c-0.063,0.82-0.749,1.442-1.557,1.442c-0.041,0-0.081-0.002-0.122-0.004c-0.86-0.067-1.503-0.817-1.438-1.679    l1.793-23.297h0.016l0.437-4.166V65.92c0.96-0.737,1.672-1.744,2.017-2.93c0.425-1.473,0.252-3.021-0.488-4.362l-1.528-2.771    V42.436l-8.105,7.357l5.986,10.85c0.417,0.755,0.142,1.707-0.612,2.122c-0.24,0.132-0.499,0.195-0.753,0.195    c-0.551,0-1.084-0.291-1.369-0.808L4.364,50.238c-0.346-0.625-0.224-1.406,0.297-1.895l8.122-7.623    c0.785-0.983,2.218-1.101,2.813-1.115v-0.002h9.111c0.236,0,1.762-0.163,2.956,0.283l1.841,0.934l8.372,4.248l8.244-6.016    c0.279-0.204,0.602-0.301,0.921-0.301c0.482,0,0.957,0.222,1.262,0.641c0.508,0.698,0.356,1.674-0.34,2.183l-9.019,6.582    c-0.272,0.199-0.596,0.301-0.921,0.301c-0.242,0-0.484-0.055-0.708-0.169l-11.099-5.776l-0.008,4.812l9.22,4.679    c0.795,0.405,1.695,0.621,2.594,0.621c1.225,0,2.393-0.383,3.381-1.105l9.015-6.579c2.549-1.864,3.111-5.453,1.251-8.002    C50.603,35.465,48.871,34.584,47.042,34.584z M24.754,39.746l-0.047-0.143C24.465,39.604,24.575,39.652,24.754,39.746z M48.637,0    c-8.439,0-15.303,5.284-15.303,11.78c0,2.409,0.958,4.761,2.722,6.722l-0.936,6.187c-0.112,0.735,0.177,1.475,0.759,1.939    c0.375,0.299,0.834,0.456,1.3,0.456c0.257,0,0.515-0.047,0.761-0.145l8.866-3.475c0.641,0.063,1.243,0.094,1.831,0.094    c8.439,0,15.305-5.284,15.305-11.778C63.942,5.284,57.076,0,48.637,0z M48.637,19.391c-0.635,0-1.255-0.046-1.864-0.122    c-0.342-0.041-0.688,0.004-1.011,0.13l-5.983,2.344l0.551-3.646c0.104-0.681-0.136-1.369-0.641-1.839    C38.69,15.332,37.5,13.802,37.5,11.78c0-4.126,5.101-7.613,11.137-7.613c6.039,0,11.139,3.487,11.139,7.613    S54.676,19.391,48.637,19.391z M99.59,49.43l-4.165-10.415c-0.406-1.015-1.082-1.854-1.917-2.471    c-0.087-0.167-0.188-0.328-0.319-0.469c-0.395-0.421-0.945-0.659-1.521-0.659h-18.75c-0.299,0-0.59,0.067-0.856,0.188    c-1.949,0.489-3.562,1.977-4.132,3.973l-4.165,14.579c-0.456,1.596-0.199,3.307,0.704,4.698c0.894,1.381,2.352,2.315,3.998,2.549    l3.993,0.57l0.343,5.133l-2.056,26.725c-0.238,3.149,2.126,5.906,5.27,6.152c0.039,0.002,0.075,0.004,0.114,0.007    c0.111,0.006,0.222,0.01,0.331,0.01c2.975,0,5.483-2.323,5.711-5.29l0.017-0.172l0.017,0.172c0.228,2.967,2.736,5.29,5.71,5.29    c0.11,0,0.22-0.004,0.332-0.01c0.039-0.003,0.075-0.005,0.114-0.007c3.143-0.246,5.507-3.003,5.27-6.148l-1.945-25.284    l0.699-10.494l3.461-0.988c1.547-0.436,2.851-1.524,3.566-2.979C100.129,52.62,100.189,50.928,99.59,49.43z M88.037,95.829    c-0.04,0.002-0.081,0.004-0.122,0.004c-0.808,0-1.493-0.622-1.556-1.442l-2.088-21.474c0-1.151-0.932-2.084-2.083-2.084    s-2.083,0.933-2.083,2.084l-2.088,21.474c-0.063,0.82-0.749,1.442-1.557,1.442c-0.04,0-0.081-0.002-0.122-0.004    c-0.86-0.067-1.503-0.817-1.438-1.679l1.838-23.87l0.211-3.613l-0.273-4.092l6.367,0.909c0.214,0.037,0.504,0.06,0.813,0.06    c1.598,0,3.054-0.688,4.104-1.776l-0.326,4.899h-0.039l0.242,4.476l1.638,23.008C89.541,95.012,88.898,95.762,88.037,95.829z     M95.675,52.248c-0.195,0.396-0.549,0.693-0.975,0.813l-6.017,1.72c-0.084-0.133-0.148-0.274-0.243-0.401    c-0.707-0.944-1.667-1.624-2.763-1.989l6.5-1.857l-2.315-6.208c-0.282-1.115-1.414-1.791-2.53-1.507    c-1.113,0.28-1.788,1.41-1.509,2.522l-0.025,0.006l1.717,3.849l-8.345,2.162l-2.587-0.37l1.636-5.725l-0.048-0.009    c0.171-1.094-0.538-2.14-1.637-2.363c-1.129-0.228-2.228,0.498-2.455,1.627l-2.814,9.918l12.812,1.831    c0.854,0.122,1.446,0.913,1.324,1.768c-0.109,0.779-0.779,1.341-1.544,1.341c-0.073,0-0.148-0.004-0.224-0.017L69.05,57.277    c-0.446-0.062-0.845-0.317-1.089-0.695c-0.246-0.379-0.315-0.847-0.191-1.28l4.167-14.583c0.195-0.684,0.808-1.135,1.489-1.135    c0.065,0,0.13,0.02,0.195,0.028v-0.028h16.656v0.026c0.552,0.063,1.056,0.401,1.277,0.954l4.167,10.417    C95.887,51.392,95.868,51.852,95.675,52.248z" id="svg_3"/></g></g></g></svg>